ffmpeg version 2.8.11-0ubuntu0.16.04.1 Copyright (c) 2000-2017 the FFmpeg developers
  built with gcc 5.4.0 (Ubuntu 5.4.0-6ubuntu1~16.04.4) 20160609
  configuration: --prefix=/usr --extra-version=0ubuntu0.16.04.1 --build-suffix=-ffmpeg --toolchain=hardened --libdir=/usr/lib/x86_64-linux-gnu --incdir=/usr/include/x86_64-linux-gnu --cc=cc --cxx=g++ --enable-gpl --enable-shared --disable-stripping --disable-decoder=libopenjpeg --disable-decoder=libschroedinger --enable-avresample --enable-avisynth --enable-gnutls --enable-ladspa --enable-libass --enable-libbluray --enable-libbs2b --enable-libcaca --enable-libcdio --enable-libflite --enable-libfontconfig --enable-libfreetype --enable-libfribidi --enable-libgme --enable-libgsm --enable-libmodplug --enable-libmp3lame --enable-libopenjpeg --enable-libopus --enable-libpulse --enable-librtmp --enable-libschroedinger --enable-libshine --enable-libsnappy --enable-libsoxr --enable-libspeex --enable-libssh --enable-libtheora --enable-libtwolame --enable-libvorbis --enable-libvpx --enable-libwavpack --enable-libwebp --enable-libx265 --enable-libxvid --enable-libzvbi --enable-openal --enable-opengl --enable-x11grab --enable-libdc1394 --enable-libiec61883 --enable-libzmq --enable-frei0r --enable-libx264 --enable-libopencv
  libavutil      54. 31.100 / 54. 31.100
  libavcodec     56. 60.100 / 56. 60.100
  libavformat    56. 40.101 / 56. 40.101
  libavdevice    56.  4.100 / 56.  4.100
  libavfilter     5. 40.101 /  5. 40.101
  libavresample   2.  1.  0 /  2.  1.  0
  libswscale      3.  1.101 /  3.  1.101
  libswresample   1.  2.101 /  1.  2.101
  libpostproc    53.  3.100 / 53.  3.100
[mp3 @ 0x22ff8c0] Unknown attached picture mimetype: ('image/png', None), skipping.
[mp3 @ 0x22ff8c0] Skipping 0 bytes of junk at 17418.
[mp3 @ 0x22ff8c0] Estimating duration from bitrate, this may be inaccurate
Input #0, mp3, from 'mikolaj-sep-szarzynski-sonet-v-o-nietrwalej-milosci-rzeczy-swiata-tego.mp3':
  Metadata:
    title           : Mikołaj Sęp Szarzyński, Sonet V (O nietrwałej miłości rzeczy świata tego)
    artist          : Jan Peszek
    album           : Wolne Lektury
    date            : 2009
    genre           : Speech
    copyright       : 2009 Fundacja Nowoczesna Polska. Licensed to the public under http://creativecommons.org/licenses/by-sa/3.0/deed.pl verify at http://www.wolnelektury.pl/katalog/lektura/sonet-v-o-nietrwalej-milosci-rzeczy-swiata-tego/
    publisher       : Fundacja Nowoczesna Polska
    performer       : Marcin Cisło
    album_artist    : Fundacja Nowoczesna Polska
    encoder         : Lavf52.87.1
  Duration: 00:01:02.25, start: 0.000000, bitrate: 66 kb/s
    Stream #0:0: Audio: mp3, 44100 Hz, mono, s16p, 64 kb/s
Output #0, null, to 'pipe:':
  Metadata:
    title           : Mikołaj Sęp Szarzyński, Sonet V (O nietrwałej miłości rzeczy świata tego)
    artist          : Jan Peszek
    album           : Wolne Lektury
    date            : 2009
    genre           : Speech
    copyright       : 2009 Fundacja Nowoczesna Polska. Licensed to the public under http://creativecommons.org/licenses/by-sa/3.0/deed.pl verify at http://www.wolnelektury.pl/katalog/lektura/sonet-v-o-nietrwalej-milosci-rzeczy-swiata-tego/
    publisher       : Fundacja Nowoczesna Polska
    performer       : Marcin Cisło
    album_artist    : Fundacja Nowoczesna Polska
    encoder         : Lavf56.40.101
    Stream #0:0: Audio: pcm_s16le, 44100 Hz, mono, s16, 705 kb/s
    Metadata:
      encoder         : Lavc56.60.100 pcm_s16le
Stream mapping:
  Stream #0:0 -> #0:0 (mp3 (native) -> pcm_s16le (native))
Press [q] to stop, [?] for help
[silencedetect @ 0x23128c0] silence_start: 1.90327
[silencedetect @ 0x23128c0] silence_end: 2.42939 | silence_duration: 0.526122
[silencedetect @ 0x23128c0] silence_start: 3.5751
[silencedetect @ 0x23128c0] silence_end: 4.46694 | silence_duration: 0.891837
[silencedetect @ 0x23128c0] silence_start: 7.57184
[silencedetect @ 0x23128c0] silence_end: 10.0571 | silence_duration: 2.48531
[silencedetect @ 0x23128c0] silence_start: 24.0029
[silencedetect @ 0x23128c0] silence_end: 24.8163 | silence_duration: 0.813469
[silencedetect @ 0x23128c0] silence_start: 40.1465
[silencedetect @ 0x23128c0] silence_end: 40.9078 | silence_duration: 0.761224
[silencedetect @ 0x23128c0] silence_start: 57.3612
[silencedetect @ 0x23128c0] silence_end: 57.8873 | silence_duration: 0.526122
[silencedetect @ 0x23128c0] silence_start: 59.1376
[silencedetect @ 0x23128c0] silence_end: 59.8204 | silence_duration: 0.682857
size=N/A time=00:01:02.24 bitrate=N/A    
video:0kB audio:5362kB subtitle:0kB other streams:0kB global headers:0kB muxing overhead: unknown
